<svg width="413" height="70" viewBox="0 0 413 70" fill="none" xmlns="http://www.w3.org/2000/svg">
<path fill-rule="evenodd" clip-rule="evenodd" d="M0 25.0651C8.58534 40.7088 23.1568 50.9999 39.688 50.9999C41.2699 50.9999 42.8338 50.9056 44.3763 50.7215C44.7865 47.6312 44.9998 44.4598 44.9998 41.2273C44.9998 28.0065 41.4324 15.8077 35.4137 6L30.3631 25.0651H0Z" fill="#3A5AFF"/>
<path d="M86.9756 48.0957C86.7965 49.349 86.1374 49.9837 84.998 50C84.1517 49.9837 83.4437 49.5036 82.874 48.5596L70.4961 20.3369C70.3496 21.6715 70.1706 23.1689 69.959 24.8291C68.3314 38.3708 67.3548 46.0938 67.0293 47.998C66.8014 49.3164 66.1341 49.9837 65.0273 50C64.653 50 64.3031 49.8942 63.9775 49.6826C63.3428 49.2594 63.0254 48.5758 63.0254 47.6318C65.9714 25.2848 67.4525 14.0788 67.4688 14.0137C67.5176 13.737 67.6071 13.4766 67.7373 13.2324C68.1442 12.5651 68.7464 12.2314 69.5439 12.2314C70.6019 12.2314 71.2855 12.5488 71.5947 13.1836L83.8994 40.7959L87.4883 14.1113C87.5046 13.8184 87.5778 13.5335 87.708 13.2568C88.0498 12.5407 88.6113 12.1826 89.3926 12.1826C89.7344 12.1826 90.068 12.2721 90.3936 12.4512C91.0283 12.8418 91.3457 13.4033 91.3457 14.1357C91.2806 14.6891 91.2074 15.2832 91.126 15.918C88.7334 35.2051 87.3499 45.931 86.9756 48.0957ZM95.7646 42.5293C95.7646 41.9759 95.7972 41.39 95.8623 40.7715C96.2041 37.9883 97.083 35.5143 98.499 33.3496C100.224 30.6966 102.299 29.3701 104.725 29.3701C105.376 29.3701 106.002 29.4515 106.604 29.6143C108.753 30.2327 109.827 31.7464 109.827 34.1553C109.827 34.3343 109.819 34.5215 109.803 34.7168C109.64 36.8978 108.663 38.7288 106.873 40.21C105.115 41.6748 103.073 42.4072 100.745 42.4072C100.306 42.4072 99.8743 42.3665 99.4512 42.2852C99.4186 42.5293 99.4023 42.8711 99.4023 43.3105C99.4023 44.2546 99.5651 44.987 99.8906 45.5078C100.33 46.1751 101.233 46.5658 102.601 46.6797C103.203 46.6797 103.797 46.6146 104.383 46.4844C105.408 46.2402 106.621 45.6624 108.021 44.751C108.932 44.1488 109.575 43.8477 109.949 43.8477C110.161 43.8477 110.381 43.9128 110.608 44.043C111.129 44.3522 111.39 44.7998 111.39 45.3857C111.39 45.5811 111.349 45.7926 111.268 46.0205C110.828 47.0785 109.51 48.0794 107.312 49.0234C105.278 49.9023 103.488 50.3418 101.941 50.3418C101.355 50.3418 100.81 50.293 100.306 50.1953C97.2783 49.5768 95.7646 47.0215 95.7646 42.5293ZM103.602 33.2031C102.12 34.196 100.957 36.084 100.11 38.8672C100.517 38.9648 100.908 39.0137 101.282 39.0137C102.633 39.0137 103.813 38.5986 104.822 37.7686C105.945 36.8571 106.507 35.7747 106.507 34.5215C106.507 33.2682 106.108 32.6335 105.311 32.6172C104.741 32.6335 104.171 32.8288 103.602 33.2031ZM125.965 50.1221C124.109 50.1058 122.571 49.4873 121.351 48.2666C119.983 49.4873 118.258 50.1058 116.175 50.1221C115.589 50.1221 115.035 50.0488 114.515 49.9023C111.666 49.0397 110.242 45.9066 110.242 40.5029C110.242 37.8988 110.527 35.2783 111.097 32.6416C111.569 30.5908 112.374 29.5573 113.514 29.541C114.555 29.5573 115.092 30.1921 115.125 31.4453C115.125 31.7057 115.052 32.2754 114.905 33.1543C114.336 36.8815 114.051 39.5671 114.051 41.2109C114.051 44.5801 114.954 46.2809 116.761 46.3135C118.095 46.2158 119.145 45.4671 119.91 44.0674L119.861 43.2861C119.861 42.4398 119.951 41.4388 120.13 40.2832C120.651 36.9141 121.627 35.2295 123.06 35.2295C124.264 35.2458 124.874 36.3525 124.891 38.5498C124.891 40.7308 124.533 42.749 123.816 44.6045C124.109 45.7275 124.882 46.2972 126.136 46.3135C127.275 46.3135 128.382 45.8984 129.456 45.0684C131.067 43.7988 132.394 41.8294 133.436 39.1602C132.719 39.0462 132.06 38.8428 131.458 38.5498C129.619 37.6221 128.699 36.0596 128.699 33.8623C128.699 32.7881 129.09 31.8522 129.871 31.0547C130.75 30.1595 131.784 29.7119 132.972 29.7119C134.03 29.7119 134.982 30.0049 135.828 30.5908C137.033 31.4535 137.659 32.6416 137.708 34.1553L137.659 35.4004C137.936 35.2702 138.286 35.0749 138.709 34.8145C139.344 34.4238 139.865 34.2285 140.271 34.2285C140.499 34.2285 140.727 34.2936 140.955 34.4238C141.508 34.7331 141.785 35.1969 141.785 35.8154C141.785 36.1898 141.647 36.5479 141.37 36.8896C140.621 37.8174 139.165 38.5091 137 38.9648C136.316 41.2923 135.324 43.3838 134.021 45.2393C131.727 48.4945 129.041 50.1221 125.965 50.1221ZM133.313 33.1055C133.151 33.1055 132.98 33.138 132.801 33.2031C132.28 33.3984 132.02 33.7565 132.02 34.2773C132.02 34.3424 132.028 34.4076 132.044 34.4727C132.158 35.319 132.923 35.791 134.339 35.8887C134.42 35.5143 134.461 35.1237 134.461 34.7168C134.445 33.7402 134.062 33.2031 133.313 33.1055ZM164.93 12.1582C164.93 12.1582 170.146 12.1582 180.579 12.1582C180.905 12.1582 181.206 12.1989 181.482 12.2803C182.378 12.5732 182.825 13.1917 182.825 14.1357C182.825 14.3962 182.768 14.6403 182.654 14.8682C182.329 15.568 181.678 15.9912 180.701 16.1377H166.639L164.93 29.4922H175.062C175.452 29.4922 175.818 29.5654 176.16 29.7119C176.958 30.07 177.356 30.6803 177.356 31.543C177.356 31.7708 177.316 31.9906 177.234 32.2021C176.941 32.9183 176.274 33.3577 175.232 33.5205H164.441L162.83 45.9717H176.722C177.096 45.9717 177.446 46.0286 177.771 46.1426C178.618 46.4844 179.041 47.1029 179.041 47.998C179.041 48.1934 179.008 48.3968 178.943 48.6084C178.683 49.3734 178.016 49.8372 176.941 50H160.657C160.25 50 159.876 49.8942 159.534 49.6826C158.883 49.2432 158.558 48.5596 158.558 47.6318C158.558 47.404 160.031 36.1979 162.977 14.0137C163.009 13.7695 163.074 13.5417 163.172 13.3301C163.514 12.5488 164.1 12.1582 164.93 12.1582ZM184.827 47.4609C184.827 47.4609 185.519 42.2363 186.902 31.7871C186.935 31.5104 186.976 31.25 187.024 31.0059C187.317 29.6061 187.952 28.9062 188.929 28.9062C189.108 28.9062 189.287 28.9225 189.466 28.9551C190.215 29.1341 190.589 29.8421 190.589 31.0791C190.589 31.2581 190.573 31.5674 190.54 32.0068C190.524 32.2998 190.516 32.5277 190.516 32.6904C190.548 32.6253 190.589 32.5602 190.638 32.4951C191.842 30.363 193.559 29.2969 195.789 29.2969C196.587 29.2969 197.319 29.5329 197.986 30.0049C198.979 30.7373 199.476 31.7057 199.476 32.9102C199.476 33.1055 199.467 33.5693 199.451 34.3018C199.435 35.9619 199.427 37.2803 199.427 38.2568C199.427 41.5771 199.524 43.5303 199.72 44.1162C199.769 44.2464 199.817 44.3848 199.866 44.5312C200.322 45.7682 200.965 46.3867 201.795 46.3867C201.941 46.3867 202.104 46.3704 202.283 46.3379C202.771 46.2402 203.471 45.8577 204.383 45.1904C205.278 44.5557 205.994 44.2383 206.531 44.2383C206.743 44.2383 206.946 44.2952 207.142 44.4092C207.646 44.7021 207.898 45.1823 207.898 45.8496C207.801 46.6471 207.117 47.526 205.848 48.4863C204.35 49.4954 202.845 50 201.331 50C200.11 50 199.077 49.6663 198.23 48.999C196.489 47.5993 195.618 44.5312 195.618 39.7949C195.618 39.4531 195.626 38.8997 195.643 38.1348C195.675 37.3372 195.691 36.6699 195.691 36.1328C195.691 34.3913 195.496 33.4961 195.105 33.4473C195.04 33.4473 194.959 33.4635 194.861 33.4961C193.934 33.8379 192.745 35.6852 191.297 39.0381C190.027 41.984 189.214 44.4336 188.855 46.3867L188.807 47.0947C188.758 47.6807 188.595 48.2178 188.318 48.7061C187.846 49.4873 187.26 49.8779 186.561 49.8779C186.365 49.8779 186.17 49.8372 185.975 49.7559C185.21 49.3978 184.827 48.6328 184.827 47.4609ZM204.48 42.4561C204.48 41.9027 204.513 41.3167 204.578 40.6982C204.92 37.8988 205.799 35.4167 207.215 33.252C208.94 30.6152 211.015 29.2969 213.44 29.2969C214.498 29.2969 215.426 29.5003 216.224 29.9072C216.549 29.5166 216.989 29.3132 217.542 29.2969C218.616 29.3132 219.17 30.0049 219.202 31.3721C219.202 31.4209 218.307 37.8662 216.517 50.708C220.114 48.0225 222.392 46.2809 223.353 45.4834C223.955 44.9626 224.581 44.694 225.232 44.6777C225.46 44.6777 225.68 44.751 225.892 44.8975C226.364 45.223 226.6 45.638 226.6 46.1426C226.583 46.9076 226.136 47.6644 225.257 48.4131C223.629 49.7803 220.464 52.2624 215.76 55.8594L214.637 63.9404C214.36 65.7959 213.571 67.2119 212.269 68.1885C211.211 68.9535 210.047 69.3359 208.777 69.3359C207.28 69.3197 205.953 68.75 204.798 67.627C203.691 66.5039 203.138 65.2507 203.138 63.8672C203.138 62.5 203.447 61.3688 204.065 60.4736C204.456 59.904 205.213 59.2041 206.336 58.374L206.385 58.3496C206.401 58.3333 206.45 58.2926 206.531 58.2275C207.654 57.3975 209.599 55.9408 212.366 53.8574L213.074 49.1211C211.984 49.8535 210.844 50.2279 209.656 50.2441C208.615 50.2441 207.711 49.9756 206.946 49.4385C205.302 48.234 204.48 45.9066 204.48 42.4561ZM213.147 44.1162C213.375 43.7907 213.652 42.9199 213.978 41.5039C214.645 38.623 215.125 35.7259 215.418 32.8125C215.044 32.6172 214.661 32.5114 214.271 32.4951C213.978 32.4951 213.676 32.5358 213.367 32.6172C211.854 33.0404 210.568 34.4401 209.51 36.8164C208.582 38.9486 208.118 41.0889 208.118 43.2373C208.118 43.4652 208.126 43.693 208.143 43.9209C208.257 45.6299 208.761 46.4844 209.656 46.4844C210.112 46.4844 210.665 46.2565 211.316 45.8008C212.081 45.2637 212.692 44.7021 213.147 44.1162ZM211.146 61.9873C211.146 61.9873 211.284 60.9945 211.561 59.0088C211.495 59.0576 211.422 59.1146 211.341 59.1797C209.729 60.4167 208.908 61.0514 208.875 61.084C207.703 61.9629 207.109 62.793 207.093 63.5742C207.093 63.8509 207.142 64.1113 207.239 64.3555C207.516 65.0716 208.029 65.4297 208.777 65.4297C209.087 65.4297 209.363 65.3809 209.607 65.2832C210.405 64.9414 210.918 63.8428 211.146 61.9873ZM234.314 50C230.392 49.8372 227.487 47.4447 225.599 42.8223C224.199 39.3392 223.499 35.0749 223.499 30.0293C223.499 29.7689 223.515 29.4352 223.548 29.0283C223.776 25.5941 224.41 22.4447 225.452 19.5801C227.145 14.9577 229.537 12.6465 232.63 12.6465C232.793 12.6465 232.964 12.6546 233.143 12.6709C235.958 12.8499 237.366 14.4857 237.366 17.5781C237.366 20.9473 235.918 24.6908 233.021 28.8086C231.181 31.429 229.253 33.5531 227.234 35.1807C227.788 38.2731 228.398 40.5924 229.065 42.1387C230.302 45.0033 232.142 46.4355 234.583 46.4355C234.746 46.4355 234.917 46.4193 235.096 46.3867C235.633 46.2891 236.382 45.8984 237.342 45.2148C238.27 44.5801 238.994 44.2627 239.515 44.2627C239.743 44.2627 239.962 44.3359 240.174 44.4824C240.646 44.8079 240.882 45.2474 240.882 45.8008C240.849 46.6471 240.247 47.5179 239.075 48.4131C237.61 49.471 236.023 50 234.314 50ZM232.654 16.333C231.694 16.3493 230.848 16.7643 230.115 17.5781C228.26 19.6777 227.243 24.0641 227.063 30.7373C228.04 29.7445 229.017 28.5726 229.993 27.2217C232.695 23.527 234.046 20.4102 234.046 17.8711C234.046 17.7409 234.013 17.5863 233.948 17.4072C233.688 16.6911 233.257 16.333 232.654 16.333ZM249.622 30.835C249.915 29.9886 250.517 29.5573 251.429 29.541H251.575C251.933 29.5573 252.291 29.598 252.649 29.6631C255.286 30.1025 257.435 31.4941 259.095 33.8379C260.657 36.0352 261.438 38.5254 261.438 41.3086C261.438 43.9616 260.69 46.2891 259.192 48.291C259.16 48.3236 259.127 48.3724 259.095 48.4375C258.476 49.2025 257.801 49.585 257.068 49.585C256.808 49.585 256.548 49.4954 256.287 49.3164C255.783 48.9421 255.53 48.4375 255.53 47.8027C255.53 47.5911 255.571 47.3714 255.652 47.1436C255.652 47.1436 255.742 46.9727 255.921 46.6309C257.109 44.7103 257.711 42.8141 257.728 40.9424C257.728 40.7308 257.719 40.5111 257.703 40.2832C257.54 38.1999 256.727 36.4176 255.262 34.9365C254.301 33.96 253.431 33.4635 252.649 33.4473C252.487 34.082 252.194 35.2458 251.771 36.9385C250.875 40.6657 249.988 43.514 249.109 45.4834C247.758 48.5107 245.488 50.0407 242.298 50.0732C240.931 50.0732 239.799 49.6012 238.904 48.6572C237.521 47.1924 236.829 44.8568 236.829 41.6504C236.829 40.5762 237.041 38.4684 237.464 35.3271C237.675 33.7972 237.822 32.6823 237.903 31.9824C237.92 31.8034 237.944 31.6243 237.977 31.4453C238.237 29.8991 238.896 29.126 239.954 29.126C240.166 29.126 240.369 29.1504 240.564 29.1992C241.264 29.3945 241.614 30.0863 241.614 31.2744C241.614 31.7464 241.533 32.7637 241.37 34.3262C240.866 38.9486 240.613 41.8213 240.613 42.9443C240.613 43.7093 240.768 44.4173 241.077 45.0684C241.533 46.0286 242.135 46.5088 242.884 46.5088C243.909 46.4925 244.837 45.752 245.667 44.2871C246.334 43.0827 247.075 40.9017 247.889 37.7441C247.921 37.5977 248.499 35.2946 249.622 30.835ZM238.831 24.9023C238.831 24.6094 238.904 24.3245 239.051 24.0479C239.376 23.4131 239.897 23.0957 240.613 23.0957C240.906 23.0957 241.191 23.1689 241.468 23.3154C242.086 23.6572 242.396 24.1862 242.396 24.9023C242.396 25.1953 242.322 25.4801 242.176 25.7568C241.85 26.3753 241.329 26.6846 240.613 26.6846C240.304 26.6846 240.019 26.6113 239.759 26.4648C239.14 26.123 238.831 25.6022 238.831 24.9023ZM263.562 47.3877L267.713 15.5518C267.957 13.6637 268.632 12.7116 269.739 12.6953C270 12.6953 270.244 12.7279 270.472 12.793C271.09 13.0208 271.399 13.7044 271.399 14.8438C271.399 16.2435 270.724 22.1924 269.373 32.6904C270.577 30.5745 272.295 29.5085 274.524 29.4922C275.322 29.4922 276.062 29.7445 276.746 30.249C277.723 30.9652 278.211 31.9173 278.211 33.1055C278.211 33.2845 278.211 33.7402 278.211 34.4727C278.195 36.1491 278.187 37.4756 278.187 38.4521C278.187 41.8213 278.276 43.7744 278.455 44.3115C278.488 44.4255 278.528 44.5475 278.577 44.6777C279.065 45.9635 279.716 46.6064 280.53 46.6064C280.693 46.6064 280.864 46.5902 281.043 46.5576C281.515 46.4437 282.207 46.0612 283.118 45.4102C284.013 44.7591 284.729 44.4336 285.267 44.4336C285.462 44.4336 285.657 44.4906 285.853 44.6045C286.373 44.9137 286.634 45.402 286.634 46.0693C286.634 46.1182 286.626 46.1833 286.609 46.2646C286.495 47.0459 285.82 47.8597 284.583 48.7061C283.069 49.7152 281.572 50.2197 280.091 50.2197C279.505 50.2197 278.951 50.1465 278.431 50C275.729 49.2025 274.378 46.403 274.378 41.6016C274.378 41.1947 274.394 40.5599 274.427 39.6973C274.476 38.6719 274.5 37.8743 274.5 37.3047C274.5 34.8958 274.288 33.6751 273.865 33.6426C273.784 33.6426 273.694 33.6589 273.597 33.6914C272.669 34.0495 271.489 35.8724 270.057 39.1602C268.803 42.0898 267.998 44.5557 267.64 46.5576C267.575 46.8831 267.542 47.1354 267.542 47.3145C267.493 47.9004 267.33 48.4294 267.054 48.9014C266.598 49.6826 266.02 50.0732 265.32 50.0732C265.125 50.0732 264.93 50.0326 264.734 49.9512C263.953 49.6257 263.562 48.8688 263.562 47.6807V47.3877Z" fill="black"/>
</svg>
